<svg xmlns="http://www.w3.org/2000/svg" viewBox="-40 -780 3912 1050" shape-rendering="geometricPrecision">
  <g fill="#3E6B31">
    <g transform="translate(-39.0,0) scale(1,-1)"><path d="M419 -10Q245 -10 142.0 82.5Q39 175 39 331Q39 500 140.5 597.5Q242 695 419 695Q544 695 653 647L668 451H631L574 525Q539 569 498.0 595.5Q457 622 419 622Q332 622 275.0 541.0Q218 460 218.0 340.0Q218 220 277.0 144.5Q336 69 430 69Q555 69 641 236H679L653 56Q618 27 553.0 8.5Q488 -10 419 -10Z"/></g>
    <g transform="translate(1393.0,0) scale(1,-1)"><path d="M312 0H20V34L55 53Q77 66 84.5 79.5Q92 93 92 120V312Q92 350 84.5 365.0Q77 380 56 388L24 401V435L207 514L238 495V403Q261 434 279.0 454.0Q297 474 332.0 494.0Q367 514 404 514Q514 514 553 414Q627 514 718 514Q796 514 840.0 459.0Q884 404 884 306V120Q884 91 891.0 78.5Q898 66 921 53L955 34V0H663V34L695 52Q714 63 719.5 75.5Q725 88 725 120V275Q725 389 645 389Q604 389 568 340Q570 320 570 306V120Q570 86 574.5 73.0Q579 60 594 52L626 34V0H350V34L382 52Q400 63 405.5 75.5Q411 88 411 120V275Q411 389 332 389Q291 389 251 346V120Q251 88 256.5 75.5Q262 63 280 52L312 34Z"/></g>
    <g transform="translate(2327.0,0) scale(1,-1)"><path d="M346 -240H16V-206L51 -187Q75 -174 83.5 -160.0Q92 -146 92 -120V313Q92 349 84.5 364.0Q77 379 56 388L24 402V436L207 514L238 495V421Q320 514 403 514Q492 514 550.0 446.0Q608 378 608 274Q608 141 530.0 65.5Q452 -10 316 -10Q288 -10 251 -1V-120Q251 -143 263.0 -157.5Q275 -172 306 -187L346 -206ZM330 52Q377 52 407.0 101.5Q437 151 437 230Q437 312 408.5 356.0Q380 400 327 400Q284 400 251 365V146Q253 102 274.0 77.0Q295 52 330 52Z"/></g>
    <g transform="translate(2945.0,0) scale(1,-1)"><path d="M323 0H20V34L55 53Q77 66 84.5 79.0Q92 92 92 120V548Q92 585 84.5 599.5Q77 614 56 623L24 637V671L220 750L251 730V120Q251 92 258.5 79.0Q266 66 288 53L323 34Z"/></g>
    <g transform="translate(3264.0,0) scale(1,-1)"><path d="M307 -10Q186 -10 111.0 62.0Q36 134 36 253Q36 361 115.5 437.5Q195 514 307 514Q428 514 502.5 442.0Q577 370 577 251Q577 142 498.0 66.0Q419 -10 307 -10ZM307 451Q260 451 234.5 399.0Q209 347 209 253Q209 158 235.0 105.5Q261 53 307.0 53.0Q353 53 378.5 105.0Q404 157 404.0 251.0Q404 345 378.5 398.0Q353 451 307 451Z"/></g>
  </g>
  <g transform="translate(620.02,-529.12) scale(12.0941)">
    <defs><clipPath id="door"><path clip-rule="evenodd" fill-rule="evenodd" d="M 0 -10 H 66 V 66 H 0 Z M 32.5 40 L 33.5 40 L 36 54.5 L 30 54.5 Z"/></clipPath></defs>
    <g clip-path="url(#door)">
      <g transform="translate(3, 0)">
        <path d="M 29.25 3 L 30.75 3 L 47.43 19.44 L 47.2 20 L 40 20 L 57.49 41.38 L 57.2 42 L 2.8 42 L 2.51 41.38 L 20 20 L 12.8 20 L 12.57 19.44 Z" fill="#3e6b31" stroke="#3e6b31" stroke-width="3.5" stroke-linejoin="miter" stroke-miterlimit="4"/>
        <path d="M 29.5 27 L 30.5 27 L 45.60 53.31 L 45.2 54 L 14.8 54 L 14.40 53.31 Z" fill="#e8853b"/>
      </g>
    </g>
  </g>
</svg>